<mxfile host="app.diagrams.net" modified="2021-08-18T19:34:39.484Z" agent="5.0 (Windows NT 6.3; Win64; x64) AppleWebKit/537.36 (KHTML, like Gecko) Chrome/91.0.4472.164 Safari/537.36 OPR/77.0.4054.277" etag="lyclEHABWRdaSmK4s1LN" version="14.9.7" type="github">
  <diagram id="C5RBs43oDa-KdzZeNtuy" name="Page-1">
    <mxGraphModel dx="828" dy="452" grid="1" gridSize="10" guides="1" tooltips="1" connect="1" arrows="1" fold="1" page="1" pageScale="1" pageWidth="827" pageHeight="1169" math="0" shadow="0">
      <root>
        <mxCell id="WIyWlLk6GJQsqaUBKTNV-0" />
        <mxCell id="WIyWlLk6GJQsqaUBKTNV-1" parent="WIyWlLk6GJQsqaUBKTNV-0" />
        <mxCell id="ga_Z4QKrbfZuO-GTs9Xx-2" value="" style="group" vertex="1" connectable="0" parent="WIyWlLk6GJQsqaUBKTNV-1">
          <mxGeometry x="307.5" y="20" width="100" height="50" as="geometry" />
        </mxCell>
        <mxCell id="ga_Z4QKrbfZuO-GTs9Xx-0" value="" style="ellipse;whiteSpace=wrap;html=1;" vertex="1" parent="ga_Z4QKrbfZuO-GTs9Xx-2">
          <mxGeometry width="100" height="50" as="geometry" />
        </mxCell>
        <mxCell id="ga_Z4QKrbfZuO-GTs9Xx-1" value="Начало" style="text;html=1;strokeColor=none;fillColor=none;align=center;verticalAlign=middle;whiteSpace=wrap;rounded=0;" vertex="1" parent="ga_Z4QKrbfZuO-GTs9Xx-2">
          <mxGeometry x="33.333333333333336" y="18.75" width="33.333333333333336" height="12.5" as="geometry" />
        </mxCell>
        <mxCell id="ga_Z4QKrbfZuO-GTs9Xx-3" value="" style="group" vertex="1" connectable="0" parent="WIyWlLk6GJQsqaUBKTNV-1">
          <mxGeometry x="327.5" y="500" width="100" height="50" as="geometry" />
        </mxCell>
        <mxCell id="ga_Z4QKrbfZuO-GTs9Xx-4" value="" style="ellipse;whiteSpace=wrap;html=1;" vertex="1" parent="ga_Z4QKrbfZuO-GTs9Xx-3">
          <mxGeometry width="100" height="50" as="geometry" />
        </mxCell>
        <mxCell id="ga_Z4QKrbfZuO-GTs9Xx-5" value="Конец" style="text;html=1;strokeColor=none;fillColor=none;align=center;verticalAlign=middle;whiteSpace=wrap;rounded=0;" vertex="1" parent="ga_Z4QKrbfZuO-GTs9Xx-3">
          <mxGeometry x="33.333333333333336" y="18.75" width="33.333333333333336" height="12.5" as="geometry" />
        </mxCell>
        <mxCell id="ga_Z4QKrbfZuO-GTs9Xx-13" value="" style="group" vertex="1" connectable="0" parent="WIyWlLk6GJQsqaUBKTNV-1">
          <mxGeometry x="260" y="160" width="155" height="65" as="geometry" />
        </mxCell>
        <mxCell id="ga_Z4QKrbfZuO-GTs9Xx-21" value="" style="group" vertex="1" connectable="0" parent="ga_Z4QKrbfZuO-GTs9Xx-13">
          <mxGeometry x="21" y="10" width="155" height="65" as="geometry" />
        </mxCell>
        <mxCell id="ga_Z4QKrbfZuO-GTs9Xx-9" value="" style="verticalLabelPosition=bottom;verticalAlign=top;html=1;shape=hexagon;perimeter=hexagonPerimeter2;arcSize=6;size=0.27;" vertex="1" parent="ga_Z4QKrbfZuO-GTs9Xx-21">
          <mxGeometry width="155" height="65" as="geometry" />
        </mxCell>
        <mxCell id="ga_Z4QKrbfZuO-GTs9Xx-10" value="&amp;nbsp;foreach (var item in spisok)" style="text;html=1;strokeColor=none;fillColor=none;align=center;verticalAlign=middle;whiteSpace=wrap;rounded=0;" vertex="1" parent="ga_Z4QKrbfZuO-GTs9Xx-21">
          <mxGeometry x="20.666666666666668" y="24.375" width="108.5" height="16.25" as="geometry" />
        </mxCell>
        <mxCell id="ga_Z4QKrbfZuO-GTs9Xx-16" value="" style="group" vertex="1" connectable="0" parent="WIyWlLk6GJQsqaUBKTNV-1">
          <mxGeometry x="283.75" y="260" width="147.5" height="80" as="geometry" />
        </mxCell>
        <mxCell id="ga_Z4QKrbfZuO-GTs9Xx-14" value="" style="rhombus;whiteSpace=wrap;html=1;" vertex="1" parent="ga_Z4QKrbfZuO-GTs9Xx-16">
          <mxGeometry width="147.5" height="80" as="geometry" />
        </mxCell>
        <mxCell id="ga_Z4QKrbfZuO-GTs9Xx-15" value="item.IsPremium==false" style="text;html=1;strokeColor=none;fillColor=none;align=center;verticalAlign=middle;whiteSpace=wrap;rounded=0;" vertex="1" parent="ga_Z4QKrbfZuO-GTs9Xx-16">
          <mxGeometry x="48.27272727272727" y="29.333333333333332" width="42.90909090909091" height="21.333333333333332" as="geometry" />
        </mxCell>
        <mxCell id="ga_Z4QKrbfZuO-GTs9Xx-19" value="" style="group" vertex="1" connectable="0" parent="WIyWlLk6GJQsqaUBKTNV-1">
          <mxGeometry x="430" y="340" width="140" height="60" as="geometry" />
        </mxCell>
        <mxCell id="ga_Z4QKrbfZuO-GTs9Xx-17" value="" style="shape=parallelogram;perimeter=parallelogramPerimeter;whiteSpace=wrap;html=1;fixedSize=1;" vertex="1" parent="ga_Z4QKrbfZuO-GTs9Xx-19">
          <mxGeometry width="140" height="60" as="geometry" />
        </mxCell>
        <mxCell id="ga_Z4QKrbfZuO-GTs9Xx-18" value="показ рекламы с помощью вызова метода&amp;nbsp;ShowAds" style="text;html=1;strokeColor=none;fillColor=none;align=center;verticalAlign=middle;whiteSpace=wrap;rounded=0;" vertex="1" parent="ga_Z4QKrbfZuO-GTs9Xx-19">
          <mxGeometry x="50" y="20" width="40" height="20" as="geometry" />
        </mxCell>
        <mxCell id="ga_Z4QKrbfZuO-GTs9Xx-22" value="" style="group" vertex="1" connectable="0" parent="WIyWlLk6GJQsqaUBKTNV-1">
          <mxGeometry x="287.5" y="90" width="140" height="60" as="geometry" />
        </mxCell>
        <mxCell id="ga_Z4QKrbfZuO-GTs9Xx-6" value="" style="shape=parallelogram;perimeter=parallelogramPerimeter;whiteSpace=wrap;html=1;fixedSize=1;" vertex="1" parent="ga_Z4QKrbfZuO-GTs9Xx-22">
          <mxGeometry width="140" height="60" as="geometry" />
        </mxCell>
        <mxCell id="ga_Z4QKrbfZuO-GTs9Xx-7" value="Создать список пользователей" style="text;html=1;strokeColor=none;fillColor=none;align=center;verticalAlign=middle;whiteSpace=wrap;rounded=0;" vertex="1" parent="ga_Z4QKrbfZuO-GTs9Xx-22">
          <mxGeometry x="25" y="20" width="90" height="20" as="geometry" />
        </mxCell>
        <mxCell id="ga_Z4QKrbfZuO-GTs9Xx-23" style="edgeStyle=orthogonalEdgeStyle;rounded=0;orthogonalLoop=1;jettySize=auto;html=1;exitX=1;exitY=1;exitDx=0;exitDy=0;" edge="1" parent="WIyWlLk6GJQsqaUBKTNV-1" source="ga_Z4QKrbfZuO-GTs9Xx-6">
          <mxGeometry relative="1" as="geometry">
            <mxPoint x="410" y="143" as="targetPoint" />
          </mxGeometry>
        </mxCell>
        <mxCell id="ga_Z4QKrbfZuO-GTs9Xx-24" value="" style="edgeStyle=orthogonalEdgeStyle;rounded=0;orthogonalLoop=1;jettySize=auto;html=1;" edge="1" parent="WIyWlLk6GJQsqaUBKTNV-1" source="ga_Z4QKrbfZuO-GTs9Xx-0">
          <mxGeometry relative="1" as="geometry">
            <mxPoint x="358" y="90" as="targetPoint" />
          </mxGeometry>
        </mxCell>
        <mxCell id="ga_Z4QKrbfZuO-GTs9Xx-25" value="" style="edgeStyle=orthogonalEdgeStyle;rounded=0;orthogonalLoop=1;jettySize=auto;html=1;" edge="1" parent="WIyWlLk6GJQsqaUBKTNV-1">
          <mxGeometry relative="1" as="geometry">
            <mxPoint x="356" y="150" as="sourcePoint" />
            <mxPoint x="356" y="170" as="targetPoint" />
          </mxGeometry>
        </mxCell>
        <mxCell id="ga_Z4QKrbfZuO-GTs9Xx-26" value="" style="endArrow=classic;html=1;exitX=0.5;exitY=1;exitDx=0;exitDy=0;entryX=0.5;entryY=0;entryDx=0;entryDy=0;" edge="1" parent="WIyWlLk6GJQsqaUBKTNV-1" source="ga_Z4QKrbfZuO-GTs9Xx-9" target="ga_Z4QKrbfZuO-GTs9Xx-14">
          <mxGeometry width="50" height="50" relative="1" as="geometry">
            <mxPoint x="390" y="270" as="sourcePoint" />
            <mxPoint x="440" y="220" as="targetPoint" />
          </mxGeometry>
        </mxCell>
        <mxCell id="ga_Z4QKrbfZuO-GTs9Xx-28" style="edgeStyle=orthogonalEdgeStyle;rounded=0;orthogonalLoop=1;jettySize=auto;html=1;exitX=1;exitY=0.5;exitDx=0;exitDy=0;entryX=0.5;entryY=0;entryDx=0;entryDy=0;" edge="1" parent="WIyWlLk6GJQsqaUBKTNV-1" source="ga_Z4QKrbfZuO-GTs9Xx-14" target="ga_Z4QKrbfZuO-GTs9Xx-17">
          <mxGeometry relative="1" as="geometry" />
        </mxCell>
        <mxCell id="ga_Z4QKrbfZuO-GTs9Xx-34" value="" style="endArrow=none;html=1;" edge="1" parent="WIyWlLk6GJQsqaUBKTNV-1">
          <mxGeometry width="50" height="50" relative="1" as="geometry">
            <mxPoint x="360" y="420" as="sourcePoint" />
            <mxPoint x="270" y="330" as="targetPoint" />
            <Array as="points">
              <mxPoint x="270" y="420" />
            </Array>
          </mxGeometry>
        </mxCell>
        <mxCell id="ga_Z4QKrbfZuO-GTs9Xx-35" value="" style="endArrow=classic;html=1;exitX=0;exitY=0.5;exitDx=0;exitDy=0;" edge="1" parent="WIyWlLk6GJQsqaUBKTNV-1" source="ga_Z4QKrbfZuO-GTs9Xx-14">
          <mxGeometry width="50" height="50" relative="1" as="geometry">
            <mxPoint x="390" y="370" as="sourcePoint" />
            <mxPoint x="270" y="330" as="targetPoint" />
            <Array as="points">
              <mxPoint x="270" y="300" />
            </Array>
          </mxGeometry>
        </mxCell>
        <mxCell id="ga_Z4QKrbfZuO-GTs9Xx-38" value="" style="endArrow=classic;html=1;" edge="1" parent="WIyWlLk6GJQsqaUBKTNV-1">
          <mxGeometry width="50" height="50" relative="1" as="geometry">
            <mxPoint x="360" y="420" as="sourcePoint" />
            <mxPoint x="360" y="440" as="targetPoint" />
          </mxGeometry>
        </mxCell>
        <mxCell id="ga_Z4QKrbfZuO-GTs9Xx-39" value="" style="endArrow=classic;html=1;entryX=0;entryY=0.5;entryDx=0;entryDy=0;" edge="1" parent="WIyWlLk6GJQsqaUBKTNV-1" target="ga_Z4QKrbfZuO-GTs9Xx-9">
          <mxGeometry width="50" height="50" relative="1" as="geometry">
            <mxPoint x="359" y="440" as="sourcePoint" />
            <mxPoint x="440" y="320" as="targetPoint" />
            <Array as="points">
              <mxPoint x="230" y="440" />
              <mxPoint x="230" y="203" />
            </Array>
          </mxGeometry>
        </mxCell>
        <mxCell id="ga_Z4QKrbfZuO-GTs9Xx-42" value="" style="endArrow=none;html=1;" edge="1" parent="WIyWlLk6GJQsqaUBKTNV-1">
          <mxGeometry width="50" height="50" relative="1" as="geometry">
            <mxPoint x="360" y="420" as="sourcePoint" />
            <mxPoint x="500" y="420" as="targetPoint" />
          </mxGeometry>
        </mxCell>
        <mxCell id="ga_Z4QKrbfZuO-GTs9Xx-43" value="" style="endArrow=classic;html=1;exitX=0.5;exitY=1;exitDx=0;exitDy=0;" edge="1" parent="WIyWlLk6GJQsqaUBKTNV-1" source="ga_Z4QKrbfZuO-GTs9Xx-17">
          <mxGeometry width="50" height="50" relative="1" as="geometry">
            <mxPoint x="390" y="370" as="sourcePoint" />
            <mxPoint x="500" y="420" as="targetPoint" />
          </mxGeometry>
        </mxCell>
        <mxCell id="ga_Z4QKrbfZuO-GTs9Xx-44" value="" style="endArrow=classic;html=1;exitX=1;exitY=0.5;exitDx=0;exitDy=0;" edge="1" parent="WIyWlLk6GJQsqaUBKTNV-1" source="ga_Z4QKrbfZuO-GTs9Xx-9">
          <mxGeometry width="50" height="50" relative="1" as="geometry">
            <mxPoint x="390" y="370" as="sourcePoint" />
            <mxPoint x="370" y="500" as="targetPoint" />
            <Array as="points">
              <mxPoint x="610" y="203" />
              <mxPoint x="610" y="460" />
              <mxPoint x="370" y="460" />
            </Array>
          </mxGeometry>
        </mxCell>
      </root>
    </mxGraphModel>
  </diagram>
</mxfile>
